<svg xmlns="http://www.w3.org/2000/svg" xmlns:svg="http://www.w3.org/2000/svg" id="Layer_1" width="24.274" height="26.012" x="0" y="0" enable-background="new 0 0 93.32 100" version="1.1" viewBox="0 0 24.274 26.012" xml:space="preserve"><metadata id="metadata15"/><polygon id="polygon3" points="39.135 20.398 22.076 37.457 0 37.457 0 62.542 22.076 62.542 39.135 79.601" transform="matrix(0.26011561,0,0,0.26011561,0,9.9706168e-6)"/><path id="path5" d="m 16.443728,13.005791 c 0,0 0,0 0,0 l 0,0 c 0,-2.61e-4 0,-2.61e-4 0,-5.21e-4 -0.04162,-2.868555 -0.982456,-5.2842485 -2.951011,-7.3786993 -0.692688,-0.7371677 -1.798179,0.3722254 -1.107312,1.1073121 1.68737,1.795578 2.456271,3.8169362 2.492167,6.2716472 -0.0359,2.455232 -0.804797,4.47607 -2.492167,6.272168 -0.690867,0.735087 0.414624,1.84474 1.107312,1.107052 1.968295,-2.094191 2.909393,-4.509884 2.951011,-7.378959 0,0 0,0 0,0 z"/><path id="path7" d="m 20.358988,13.005791 c 0,0 0,0 0,0 l 0,0 c 0,-2.61e-4 0,-2.61e-4 0,-5.21e-4 -0.0541,-3.8403467 -1.370809,-7.287919 -4.025809,-10.0724566 -0.69815,-0.7322254 -1.804162,0.3769076 -1.107312,1.1073122 2.370173,2.4864451 3.518584,5.5376011 3.566965,8.9656654 -0.04838,3.428063 -1.196792,6.479479 -3.566965,8.965664 -0.69685,0.730665 0.409162,1.839538 1.107312,1.107052 2.655,-2.784537 3.971705,-6.23211 4.025809,-10.072716 0,0 0,0 0,0 z"/><path id="path9" d="m 24.273988,13.005791 0,0 c 0,0 0,0 0,0 C 24.219884,8.1738828 22.529133,3.7285071 19.174162,0.23853598 18.47341,-0.49082818 17.367399,0.61804465 18.06685,1.3458481 c 3.069624,3.1931792 4.59156,7.2390174 4.641242,11.6599429 -0.04942,4.420924 -1.571618,8.466763 -4.641242,11.660462 -0.699451,0.727543 0.4063,1.836156 1.107312,1.107052 3.354971,-3.490491 5.045722,-7.935347 5.099826,-12.767254 0,-2.6e-4 0,-2.6e-4 0,-2.6e-4 0,0 0,0 0,0 z"/></svg>