<svg xmlns="http://www.w3.org/2000/svg" xmlns:svg="http://www.w3.org/2000/svg" id="svg2" width="561.593" height="363.862" version="1.1"><defs id="defs4"><marker id="Arrow2Lend" orient="auto" overflow="visible" refX="0" refY="0"><path id="path3961" fill-rule="evenodd" stroke-linejoin="round" stroke-width=".625" d="M 8.7185878,4.0337352 -2.2072895,0.01601326 8.7185884,-4.0017078 c -1.7454984,2.3720609 -1.7354408,5.6174519 -6e-7,8.035443 z" font-size="12" transform="matrix(-1.1,0,0,-1.1,-1.1,0)"/></marker><marker id="Arrow1Lstart" orient="auto" overflow="visible" refX="0" refY="0"><path id="path3940" fill-rule="evenodd" stroke="#000" stroke-width="1pt" marker-start="none" d="M 0,0 5,-5 -12.5,0 5,5 0,0 z" transform="matrix(0.8,0,0,0.8,10,0)"/></marker><marker id="Arrow1Lend" orient="auto" overflow="visible" refX="0" refY="0"><path id="path3943" fill-rule="evenodd" stroke="#000" stroke-width="1pt" marker-start="none" d="M 0,0 5,-5 -12.5,0 5,5 0,0 z" transform="matrix(-0.8,0,0,-0.8,-10,0)"/></marker><marker id="Arrow1Lend-4" orient="auto" overflow="visible" refX="0" refY="0"><path id="path3943-8" fill-rule="evenodd" stroke="#000" stroke-width="1pt" marker-start="none" d="M 0,0 5,-5 -12.5,0 5,5 0,0 z" transform="matrix(-0.8,0,0,-0.8,-10,0)"/></marker><marker id="marker3011" orient="auto" overflow="visible" refX="0" refY="0"><path id="path3013" fill-rule="evenodd" stroke="#000" stroke-width="1pt" marker-start="none" d="M 0,0 5,-5 -12.5,0 5,5 0,0 z" transform="matrix(-0.8,0,0,-0.8,-10,0)"/></marker><marker id="marker3015" orient="auto" overflow="visible" refX="0" refY="0"><path id="path3017" fill-rule="evenodd" stroke="#000" stroke-width="1pt" marker-start="none" d="M 0,0 5,-5 -12.5,0 5,5 0,0 z" transform="matrix(-0.8,0,0,-0.8,-10,0)"/></marker></defs><metadata id="metadata7"/><g id="layer1" transform="translate(-91.85715,-139.93361)"><path id="path5024-1" fill="#93d1ee" fill-opacity="1" stroke="#000" stroke-linecap="butt" stroke-linejoin="miter" stroke-opacity="1" stroke-width="1" d="M 413,359 555,152 642,390 z"/><path id="path5024" fill="#93eea2" fill-opacity="1" stroke="#000" stroke-linecap="butt" stroke-linejoin="miter" stroke-opacity="1" stroke-width="1" d="M 104,358 245,150 332,389 z"/><path id="path5127" fill="none" stroke="#000" stroke-dasharray="none" stroke-linecap="butt" stroke-linejoin="miter" stroke-miterlimit="4" stroke-opacity="1" stroke-width="2" marker-end="url(#Arrow1Lend)" d="M 104,358 245,150" display="inline"/><path id="path5129" fill="none" stroke="#000" stroke-dasharray="none" stroke-linecap="butt" stroke-linejoin="miter" stroke-miterlimit="4" stroke-opacity="1" stroke-width="2" marker-end="url(#Arrow1Lend)" d="m 245,150 87,235"/><path id="path5131" fill="none" stroke="#000" stroke-dasharray="none" stroke-linecap="butt" stroke-linejoin="miter" stroke-miterlimit="4" stroke-opacity="1" stroke-width="2" marker-end="url(#Arrow1Lend)" d="M 332,389 104,358"/><path id="path5127-8" fill="none" stroke="#000" stroke-dasharray="none" stroke-linecap="butt" stroke-linejoin="miter" stroke-miterlimit="4" stroke-opacity="1" stroke-width="2" marker-end="none" marker-start="url(#Arrow1Lstart)" d="M 413,359 555,152" display="inline"/><path id="path5129-2" fill="none" stroke="#000" stroke-dasharray="none" stroke-linecap="butt" stroke-linejoin="miter" stroke-miterlimit="4" stroke-opacity="1" stroke-width="2" marker-end="none" marker-start="url(#Arrow1Lstart)" d="m 555,152 87,235"/><path id="path5131-4" fill="none" stroke="#000" stroke-dasharray="none" stroke-linecap="butt" stroke-linejoin="miter" stroke-miterlimit="4" stroke-opacity="1" stroke-width="2" marker-end="none" marker-start="url(#Arrow1Lstart)" d="M 642,390 413,359"/><text id="text5054" x="231.243" y="436.822" fill="#000" fill-opacity="1" stroke="none" font-family="Sans" font-size="40" font-style="normal" font-weight="normal" letter-spacing="0" text-anchor="middle" word-spacing="0" xml:space="preserve" style="text-align:center;line-height:125%"><tspan id="tspan5056" x="231.243" y="436.822" font-size="20">Clockwise</tspan><tspan id="tspan5058" x="231.243" y="461.822" font-size="20">Front Facing</tspan><tspan id="tspan5060" x="231.243" y="486.822" font-size="20">Triangle</tspan></text><text id="text5054-2" x="535.858" y="439.587" fill="#000" fill-opacity="1" stroke="none" font-family="Sans" font-size="20" font-style="normal" font-weight="normal" letter-spacing="0" text-anchor="middle" word-spacing="0" xml:space="preserve" style="text-align:center;line-height:125%"><tspan id="tspan5056-6" x="535.858" y="439.587">Counter Clockwise</tspan><tspan id="tspan5058-0" x="535.858" y="464.587">Back Facing</tspan><tspan id="tspan5060-4" x="535.858" y="489.587">Triangle</tspan></text></g></svg>